<svg width="873" height="684" fill="none" xmlns="http://www.w3.org/2000/svg"><g opacity=".05"><path fill="#D9D9D9" d="m310 154 32-32 32 32-32 32zM498 154l32-32 32 32-32 32zM404 250l32-32 32 32-32 32zM404 438l32-32 32 32-32 32zM686 342l32-32 32 32-32 32zM498 342l32-32 32 32-32 32zM310 342l32-32 32 32-32 32zM122 342l32-32 32 32-32 32zM310 530l32-32 32 32-32 32zM498 530l32-32 32 32-32 32z"/><path d="m530 191.5-55.492 57m55.492-57 36.5-38-36.5-36-38.101 36m38.101 38-38.101-38M438 286l-39-37.5m39 37.5 36.508-37.5M438 286l53.899 56M399 248.5l39-38.5 36.508 38.5m-75.508 0-57 55.76m132.508-55.76-96.094-95m0 0L342 117.5l-37 36 37 37 36.414-37Zm0 0-92.914 95m0 0-94.5-95L342 4l96 95.745M285.5 248.5l-37.986 37m244.385-132L438 99.745m0 0L530 4l150 149.5-94.799 95M491.899 342 530 379.5M491.899 342 530 303.818m0 75.682 38-37.5m-38 37.5-55.492 58.476M568 342l-38-38.182M568 342l57.5 57.309M530 303.818l55.201-55.318M625.5 286l93-94.5 150 150.5-150 150-93-92.691m0-113.309-40.299-37.5M625.5 286l55.701 56m0 0 37.299 37.5L755 342l-36.5-38.182L681.201 342ZM625.5 399.309l-40.299 38.667M491.899 527.5l38.101 37 36.5-37-37.603-35.5m-36.998 35.5 36.998-35.5m-36.998 35.5L438 473.5m90.897 18.5 56.304-54.024m0 0L680 527.5l-150 152-93.5-93.75M343 492l56-56.421M343 492l-38 35.5 37 37 36.405-37M343 492l35.405 35.5M435 399.309l39.508 38.667M435 399.309l-36 36.27m36-36.27L378.414 342m96.094 95.976L438 473.5m0 0-39-37.921m37.5 150.171L343 679.5l-152-152 92.869-91.921M436.5 585.75l-58.095-58.25m.009-185.5-37.887 37.5m37.887-37.5L342 304.26m-1.473 75.24-56.658 56.079m56.658-56.079L303.421 342M245.5 399.309 154.5 492 4 342l150.5-150.5 93.014 94M245.5 399.309l-54.5-57.19m54.5 57.19 38.369 36.27M191 342.119l-36.5-38.301L116 342l38.5 37.5 36.5-37.381Zm56.514-56.619 55.907 56.5m0 0L342 304.26" stroke="#2F2F2F" stroke-width="5"/><path d="M342 33.5 515.5 206l-27 27-147-146-66 66.5 51.5 53-26.5 26.5-79-79.5L342 33.5Z" stroke="#2F2F2F" stroke-width="3"/><path d="M597 154 451.5 300l26 27 173-173-120-120.5-80 79 27 26.5 53-52 66.5 67ZM718 409 571 262l-26.5 27.5L718 462l121-120-121-120-79 78 26.5 27 52.5-52 67 67-67 67ZM153.5 221.5l173 172-27 26.5-146-145L87 342l66.5 67 52-51.5 26.5 27-78.5 78L33 341.5l120.5-120ZM221.5 530l172-172.5 26 26.5L275 530l67 67 53-52 26 26-79 79.5L221.5 530Z" stroke="#2F2F2F" stroke-width="3"/><path d="M529.5 597 385 451.5l-28.5 26 173 173L651 530l-79.5-78.5-25.5 26 51 52.5-67.5 67ZM393.5 169 263 300l26 27 132-131.5-27.5-26.5Z" stroke="#2F2F2F" stroke-width="3"/><path d="m451.5 486.5 132.5-129 25.5 26.5-132 131.5-26-29ZM515.5 393.5 385 262l-28.5 27.5 132 130.5 27-26.5Z" stroke="#2F2F2F" stroke-width="3"/></g></svg>