<svg width="873" height="683" fill="none" xmlns="http://www.w3.org/2000/svg"><g opacity=".05"><path fill="#D9D9D9" d="m310.039 153.871 32-32 32 32-32 32zM498.039 153.871l32-32 32 32-32 32zM404.039 249.871l32-32 32 32-32 32zM404.039 437.871l32-32 32 32-32 32zM686.039 341.871l32-32 32 32-32 32zM498.039 341.871l32-32 32 32-32 32zM310.039 341.871l32-32 32 32-32 32zM122.039 341.871l32-32 32 32-32 32zM310.039 529.871l32-32 32 32-32 32zM498.039 529.871l32-32 32 32-32 32z"/><path d="m530.039 191.371-55.492 57m55.492-57 36.5-38-36.5-36-38.101 36m38.101 38-38.101-38m-53.899 132.5-39-37.5m39 37.5 36.508-37.5m-36.508 37.5 53.899 56m-92.899-93.5 39-38.5 36.508 38.5m-75.508 0-57 55.76m132.508-55.76-96.094-95m0 0-36.414-36-37 36 37 37 36.414-37Zm0 0-92.914 95m0 0-94.5-95 151-149.5 96 95.745m-152.5 148.755-37.986 37m244.385-132-53.899-53.755m0 0 92-95.745 150 149.5-94.799 95m-93.302 93.5 38.101 37.5m-38.101-37.5 38.101-38.182m0 75.682 38-37.5m-38 37.5-55.492 58.476m93.492-95.976-38-38.182m38 38.182 57.5 57.309m-95.5-95.491 55.201-55.318m40.299 37.5 93-94.5 150 150.5-150 150-93-92.691m0-113.309-40.299-37.5m40.299 37.5 55.701 56m0 0 37.299 37.5 36.5-37.5-36.5-38.182-37.299 38.182Zm-55.701 57.309-40.299 38.667m-93.302 89.524 38.101 37 36.5-37-37.603-35.5m-36.998 35.5 36.998-35.5m-36.998 35.5-53.899-54m90.897 18.5 56.304-54.024m0 0 94.799 89.524-150 152-93.5-93.75m-93.5-93.75 56-56.421m-56 56.421-38 35.5 37 37 36.405-37m-35.405-35.5 35.405 35.5m56.595-128.191 39.508 38.667m-39.508-38.667-36 36.27m36-36.27-56.586-57.309m96.094 95.976-36.508 35.524m0 0-39-37.921m37.5 150.171-93.5 93.75-152-152 92.869-91.921m152.631 150.171-58.095-58.25m.009-185.5-37.887 37.5m37.887-37.5-36.414-37.74m-1.473 75.24-56.658 56.079m56.658-56.079-37.106-37.5m-57.921 57.309-91 92.691-150.5-150 150.5-150.5 93.014 94m-2.014 113.809-54.5-57.19m54.5 57.19 38.369 36.27m-92.869-93.46-36.5-38.301-38.5 38.182 38.5 37.5 36.5-37.381Zm56.514-56.619 55.907 56.5m0 0 38.579-37.74" stroke="#2F2F2F" stroke-width="5"/><path d="m342.039 33.371 173.5 172.5-27 27-147-146-66 66.5 51.5 53-26.5 26.5-79-79.5 120.5-120Z" stroke="#2F2F2F" stroke-width="3"/><path d="m597.039 153.871-145.5 146 26 27 173-173-120-120.5-80 79 27 26.5 53-52 66.5 67ZM718.039 408.871l-147-147-26.5 27.5 173.5 172.5 121-120-121-120-79 78 26.5 27 52.5-52 67 67-67 67ZM153.539 221.371l173 172-27 26.5-146-145-66.5 67 66.5 67 52-51.5 26.5 27-78.5 78-120.5-121 120.5-120ZM221.539 529.871l172-172.5 26 26.5-144.5 146 67 67 53-52 26 26-79 79.5-120.5-120.5Z" stroke="#2F2F2F" stroke-width="3"/><path d="m529.539 596.871-144.5-145.5-28.5 26 173 173 121.5-120.5-79.5-78.5-25.5 26 51 52.5-67.5 67ZM393.539 168.871l-130.5 131 26 27 132-131.5-27.5-26.5Z" stroke="#2F2F2F" stroke-width="3"/><path d="m451.539 486.371 132.5-129 25.5 26.5-132 131.5-26-29ZM515.539 393.371l-130.5-131.5-28.5 27.5 132 130.5 27-26.5Z" stroke="#2F2F2F" stroke-width="3"/></g></svg>