<svg width="873" height="683" fill="none" xmlns="http://www.w3.org/2000/svg"><g opacity=".05"><path fill="#D9D9D9" d="m310.52 153.936 32-32 32 32-32 32zM498.52 153.936l32-32 32 32-32 32zM404.52 249.936l32-32 32 32-32 32zM404.52 437.936l32-32 32 32-32 32zM686.52 341.936l32-32 32 32-32 32zM498.52 341.936l32-32 32 32-32 32zM310.52 341.936l32-32 32 32-32 32zM122.52 341.936l32-32 32 32-32 32zM310.52 529.936l32-32 32 32-32 32zM498.52 529.936l32-32 32 32-32 32z"/><path d="m530.52 191.436-55.493 57m55.493-57 36.5-38-36.5-36-38.102 36m38.102 38-38.102-38m-53.898 132.5-39-37.5m39 37.5 36.507-37.5m-36.507 37.5 53.898 56m-92.898-93.5 39-38.5 36.507 38.5m-75.507 0-57 55.76m132.507-55.76-96.093-95m0 0-36.414-36-37 36 37 37 36.414-37Zm0 0-92.914 95m0 0-94.5-95 151-149.5 96 95.744m-152.5 148.756-37.987 37m244.385-132L438.52 99.68m0 0 92-95.744 150 149.5-94.8 95m-93.302 93.5 38.102 37.5m-38.102-37.5 38.102-38.183m0 75.683 38-37.5m-38 37.5-55.493 58.476m93.493-95.976-38-38.183m38 38.183 57.5 57.309m-95.5-95.492 55.2-55.317m40.3 37.5 93-94.5 150 150.5-150 150-93-92.691m0-113.309-40.3-37.5m40.3 37.5 55.7 56m0 0 37.3 37.5 36.5-37.5-36.5-38.183-37.3 38.183Zm-55.7 57.309-40.3 38.667m-93.302 89.524 38.102 37 36.5-37-37.603-35.5m-36.999 35.5 36.999-35.5m-36.999 35.5-53.898-54m90.897 18.5 56.303-54.024m0 0 94.8 89.524-150 152-93.5-93.75m-93.5-93.75 56-56.421m-56 56.421-38 35.5 37 37 36.405-37m-35.405-35.5 35.405 35.5m56.595-128.191 39.507 38.667m-39.507-38.667-36 36.27m36-36.27-56.586-57.309m96.093 95.976-36.507 35.524m0 0-39-37.921m37.5 150.171-93.5 93.75-152-152 92.869-91.921M437.02 585.686l-58.095-58.25m.009-185.5-37.887 37.5m37.887-37.5-36.414-37.74m-1.473 75.24-56.658 56.079m56.658-56.079-37.107-37.5m-57.92 57.309-91 92.691-150.5-150 150.5-150.5 93.013 94m-2.013 113.809-54.5-57.19m54.5 57.19 38.369 36.27m-92.869-93.46-36.5-38.302-38.5 38.183 38.5 37.5 36.5-37.381Zm56.513-56.619 55.907 56.5m0 0 38.58-37.74" stroke="#2F2F2F" stroke-width="5"/><path d="m342.52 33.435 173.5 172.501-27 27-147-146-66 66.5 51.5 53-26.5 26.5-79-79.5 120.5-120Z" stroke="#2F2F2F" stroke-width="3"/><path d="m597.52 153.936-145.5 146 26 27 173-173-120-120.5-80 79 27 26.5 53-52 66.5 67ZM718.52 408.936l-147-147-26.5 27.5 173.5 172.5 121-120-121-120-79 78 26.5 27 52.5-52 67 67-67 67ZM154.02 221.436l173 172-27 26.5-146-145-66.5 67 66.5 67 52-51.5 26.5 27-78.5 78-120.5-121 120.5-120ZM222.02 529.936l172-172.5 26 26.5-144.5 146 67 67 53-52 26 26-79 79.5-120.5-120.5Z" stroke="#2F2F2F" stroke-width="3"/><path d="m530.02 596.936-144.5-145.5-28.5 26 173 173 121.5-120.5-79.5-78.5-25.5 26 51 52.5-67.5 67ZM394.02 168.936l-130.5 131 26 27 132-131.5-27.5-26.5Z" stroke="#2F2F2F" stroke-width="3"/><path d="m452.02 486.436 132.5-129 25.5 26.5-132 131.5-26-29ZM516.02 393.436l-130.5-131.5-28.5 27.5 132 130.5 27-26.5Z" stroke="#2F2F2F" stroke-width="3"/></g></svg>